<svg preserveAspectRatio="xMidYMid meet" xmlns="http://www.w3.org/2000/svg" viewBox="0 0 1024 1024" height="1024" width="1024"><svg preserveAspectRatio="none" xmlns="http://www.w3.org/2000/svg" height="273" width="563" y="388" x="230"><svg preserveAspectRatio="none" viewBox="-14.48 -13.40 2073.41 1005.40" height="273" width="563" style="display: block;" xmlns="http://www.w3.org/2000/svg" version="1.1"><g id="svg-group-3a6375db-af5e-4ad6-b2dc-e1f95cef8f34">
<defs>
	<linearGradient y2="513.798" x2="957.867" y1="705.972" x1="931.463" gradientUnits="userSpaceOnUse" id="Gradient1">
		<stop stop-color="rgba(156, 155, 155, 1)" stop-opacity="1" offset="0" class="stop0"></stop>
		<stop stop-color="rgba(196, 194, 194, 1)" stop-opacity="1" offset="1" class="stop1"></stop>
	</linearGradient>
</defs>
<path d="M 507.132 286.389 C 518.449 285.692 537.723 285.725 549.389 286.217 C 657.142 290.752 767.267 320.763 851.399 390.695 C 879.279 413.87 894.916 444.512 924.767 465.821 C 947.777 483.428 977.414 491.401 1005.86 492.247 C 1026.31 492.855 1026.63 491.035 1025.19 471.92 C 1024.86 467.606 1025.21 461.173 1025.31 456.699 C 1027.52 453.618 1031.47 448.961 1034.7 447.351 C 1047.76 440.819 1094.15 437.804 1106.83 441.63 C 1112.89 448.229 1116.14 454.905 1120.38 462.669 C 1128.44 454.771 1136.58 447.346 1146.03 441.116 C 1166.43 427.927 1191.25 423.407 1214.99 428.555 C 1236.03 433.095 1254.39 445.833 1266.01 463.951 C 1291.2 502.725 1294.59 563.086 1286.88 608.653 C 1276.76 668.488 1230.03 698.904 1171.05 685.168 C 1161.59 682.964 1151.3 676.313 1141.25 674.095 C 1138.27 679.416 1144.59 727.766 1145.05 738.174 C 1145.41 746.468 1145.67 756.738 1139.54 763.168 C 1129.2 774.014 1076.4 773.305 1059.43 773.431 C 1037.17 759.981 1048.8 697.392 1039.39 675.35 C 1037.78 671.578 1027.56 675.535 1025.38 676.341 C 973.035 695.662 931.887 736.854 906.764 786.042 C 898.696 801.531 874.721 828.979 859.598 841.667 C 780.07 916.422 657.104 962.376 549.552 972.581 C 423.603 984.682 297.05 956.71 187.934 892.654 C 114.509 849.981 10.5581 769.062 1.96407 677.639 C -3.54557 619.028 40.6495 546.297 77.1932 502.36 C 161.461 400.258 277.331 329.128 406.516 300.196 C 443.097 292.126 470.106 289.753 507.132 286.389 z M 1034.31 613.868 C 1000.4 618.406 951.418 646.166 925.642 668.444 C 916.102 676.272 907.643 685.113 899.116 693.988 C 894.769 698.511 890.54 706.515 884.477 707.854 C 884.153 707.456 883.83 707.058 883.506 706.659 C 884.957 694.681 886.9 676.805 887.154 665.248 C 888.034 625.098 886.08 591.795 879.469 551.984 C 877.943 542.728 876.11 533.525 873.971 524.392 C 872.723 519.271 866.977 502.5 869.964 499.051 C 871.975 499.435 906.031 523.262 911.776 526.382 C 942.204 542.994 976.606 550.939 1011.24 549.354 C 1016.23 549.1 1022.28 549.295 1026.99 547.896 C 1029.99 545.168 1029.12 546.179 1029.71 541.373 C 1028.68 534.61 1028.55 528.784 1027.71 522.277 C 967.852 524.879 931.96 515.712 886.527 474.192 C 866.944 456.297 851.283 430.697 831.73 415.003 C 741.672 342.719 617.425 313.484 503.905 319.404 C 360.307 326.893 220.204 393.527 122.395 498.368 C 83.3935 540.533 32.6251 613.995 34.3435 673.003 C 35.7517 721.359 78.7836 768.028 113.094 799.649 C 217.898 896.238 375.009 950.298 517.18 943.293 C 552.438 941.707 587.473 936.866 621.839 928.831 C 704.215 909.009 797.355 863.743 855.736 800.917 C 876.831 778.215 881.022 764.963 896.311 741.655 C 919.568 706.202 960.815 670.722 999.314 653.337 C 1012.24 647.499 1023.76 644.23 1037.28 640.327 C 1037.08 637.02 1036.8 629.386 1036.14 626.488 C 1035.31 622.918 1034.79 617.627 1034.31 613.868 z M 1170.5 613.867 C 1200.2 603.857 1196.58 563.826 1192.23 539.44 C 1188.6 519.153 1178.77 503.937 1156.55 505.269 C 1124.03 512.238 1130.28 564.379 1135 587.848 C 1138.83 606.885 1151.95 615.42 1170.5 613.867 z" fill="rgba(254, 254, 254, 1)" transform="translate(0,0)"></path>
<path d="M 578.138 701.791 C 590.176 707.244 601.363 710.537 614.665 706.815 C 622.837 704.539 630.118 699.822 635.534 693.294 C 653.735 671.184 641.017 643.364 645.58 635.23 L 649.167 634.768 C 654.658 637.778 655.537 652.264 656.823 659.659 C 664.854 705.832 678.41 745.609 694.812 789.075 C 702.486 807.393 721.314 842.112 733.61 857.641 C 711.37 871.099 681.528 883.03 656.899 891.013 C 564.081 921.603 464.609 925.917 369.492 903.476 C 331.505 894.117 295.059 882.65 260.219 864.735 C 257.078 863.12 253.572 861.357 250.353 859.927 C 256.603 843.291 271.619 809.294 273.304 793.611 C 279.59 768.177 284.393 743.355 285.739 717.078 C 286.616 699.966 285.468 682.528 286.696 665.174 C 292.284 664.413 301.77 662.727 306.972 663.495 C 312.185 667.678 312.313 680.481 314.084 687.126 C 325.226 728.913 351.49 734.348 387.193 716.728 C 406.21 727.835 421.941 732.536 440.626 718.717 C 454.529 708.433 460.837 717.817 473.064 721.171 C 488.436 725.388 503.899 715.072 516.385 707.189 C 541.694 720.136 555.69 718.746 578.138 701.791 z" fill="rgba(189, 119, 73, 1)" transform="translate(0,0)"></path>
<path d="M 694.812 789.075 C 702.486 807.393 721.314 842.112 733.61 857.641 C 711.37 871.099 681.528 883.03 656.899 891.013 C 564.081 921.603 464.609 925.917 369.492 903.476 C 331.505 894.117 295.059 882.65 260.219 864.735 C 257.078 863.12 253.572 861.357 250.353 859.927 C 256.603 843.291 271.619 809.294 273.304 793.611 L 274.46 796.805 C 279.995 801.501 293.039 804.219 299.998 806.558 C 417.268 845.983 547.78 841.901 664.012 800.752 C 669.739 798.724 691.665 791.892 694.812 789.075 z" fill="rgba(154, 89, 58, 1)" transform="translate(0,0)"></path>
<path d="M 526.637 344.378 C 536.431 343.893 550.914 345.537 560.975 346.106 C 607.487 348.734 650.791 355.731 694.944 371.007 C 691.781 381.215 683.979 396.122 679.784 407.272 C 668.901 436.261 661.073 466.306 656.427 496.92 C 653.621 514.841 651.869 533.172 650.057 552.011 C 648.751 565.602 651.599 589.487 648.961 603.015 C 648.573 605.007 646.415 605.851 644.734 606.414 C 643.255 605.431 641.683 604.484 641.523 602.397 C 639.501 575.923 635.285 546.455 604.36 539.158 C 588.711 535.465 577.503 541.957 564.585 550.679 C 538.847 534.574 522.535 536.581 499.39 556.398 C 474.59 540.643 457.983 543.159 435.82 561.551 C 419.963 553.735 410.274 548.553 392.715 554.356 C 383.821 558.342 379.185 561.509 372.51 568.524 C 358.258 563.619 346.601 560.049 331.884 566.082 C 312.466 574.042 304.885 595.78 305.94 615.305 C 306.186 619.873 307.019 632.302 305.465 636.155 C 301.96 637.368 289.957 637.154 285.577 637.206 C 276.902 586.411 267.034 544.704 242.638 498.142 C 234.267 482.166 223.445 467.206 215.277 451.746 C 227.692 439.017 257.421 422.662 273.201 413.694 C 340.008 375.726 413.742 351.945 490.585 346.851 C 502.808 346.041 514.421 346.052 526.637 344.378 z" fill="rgba(189, 119, 73, 1)" transform="translate(0,0)"></path>
<path d="M 594.126 562.757 C 609.272 564.425 613.628 577.571 614.43 590.797 C 615.969 616.198 620.393 645.908 619.51 671.104 C 611.585 685.935 601.658 686.699 590.937 674.796 C 588.315 664.259 587.903 653.738 587.547 642.943 C 580.26 643.199 565.564 643.031 559.661 645.805 C 557.158 648.765 556.915 649.741 557.437 653.702 C 558.707 663.337 558.994 672.208 558.434 681.907 C 558.139 682.306 557.84 682.702 557.538 683.095 C 552.838 689.189 543.939 695.426 536.801 689.748 C 525.902 681.08 526.354 659.59 525.646 647.051 C 515.227 647.222 503.625 648.508 493.16 649.434 C 492.89 669.146 501.762 684.865 483.401 697.596 C 480.795 697.442 475.846 696.562 473.078 696.154 C 460.502 684.84 462.447 669.218 461.46 652.109 C 451.159 652.312 439.386 654.023 428.289 654.361 C 430.329 666.6 431.04 679.023 430.411 691.415 C 427.812 695.638 425.165 698.071 421.73 701.557 C 417.429 701.988 413.212 701.564 408.903 701.274 C 396.602 688.715 398.299 674.841 397.771 657.871 C 387.647 658.378 377.528 658.969 367.414 659.645 C 367.646 672.039 369.22 679.42 368.072 692.808 C 364.34 697.112 363.387 698.355 358.437 701.279 C 334.911 699.516 337.183 678.154 335.26 659.35 C 333.278 639.979 331.036 619.072 331.606 599.703 C 336.414 593.363 345.58 582.679 354.321 590.852 C 363.509 599.443 363.351 614.825 363.826 626.678 C 372.51 626.59 385.587 625.683 393.983 624.613 C 392.539 613.062 391.61 601.453 391.199 589.82 L 395.39 581.639 C 424.69 563.521 424.42 603.858 425.529 621.547 C 436.165 620.736 446.82 620.187 457.483 619.902 C 456.735 608.655 455.387 591.649 456.555 580.827 C 466.426 565.787 475.3 570.056 486.1 581.039 C 488.109 591.278 488.785 605.65 489.712 616.43 C 500.73 615.862 511.741 615.18 522.744 614.384 C 521.714 601.557 520.459 588.58 520.443 575.721 C 531.346 562.252 543.188 557.887 550.026 577.65 C 553.736 588.374 552.476 598.799 554.841 609.671 C 558.076 612.272 580.028 609.646 585.432 609.227 C 584.273 598.444 581.644 582.888 584.338 572.662 C 585.785 567.171 589.453 565.342 594.126 562.757 z" fill="rgba(254, 254, 254, 1)" transform="translate(0,0)"></path>
<path d="M 805.922 434.266 C 813.199 435.524 827.421 467.391 830.319 474.817 C 860.461 552.062 868.296 639.834 854.014 721.378 C 852.163 731.947 844.519 770.798 835.327 774.536 C 811.864 758.866 792.897 696.961 787.217 669.242 C 773.677 603.179 769.45 491.647 805.922 434.266 z M 827.151 685.369 C 841.083 671.567 838.794 623.201 821.214 618.71 C 807.394 633.62 809.692 673.806 827.151 685.369 z M 818.736 586.128 C 824.24 580.37 824.826 576.956 825.28 569.124 C 826 556.724 826.258 524.386 809.263 523.306 C 804.239 533.394 802.695 542.126 803.615 553.383 C 804.443 563.511 807.155 583.107 818.736 586.128 z" fill="rgba(231, 157, 69, 1)" transform="translate(0,0)"></path>
<path d="M 679.664 631.295 C 704.469 628.875 729.318 626.917 754.196 625.422 C 755.247 632.153 755.376 639.081 756.72 645.61 C 759.943 657.78 761.436 669.901 764.208 682.061 C 772.712 719.377 785.836 757.294 810.184 787.375 C 812.718 790.505 820.74 799.49 818.119 802.5 C 809.005 812.965 769.005 843.295 757.505 846.079 C 747.247 839.38 720.457 785.937 715.576 771.708 C 698.034 726.217 684.6 680.033 679.664 631.295 z" fill="rgba(254, 254, 254, 1)" transform="translate(0,0)"></path>
<path d="M 756.72 645.61 C 759.943 657.78 761.436 669.901 764.208 682.061 C 772.712 719.377 785.836 757.294 810.184 787.375 C 812.718 790.505 820.74 799.49 818.119 802.5 C 809.005 812.965 769.005 843.295 757.505 846.079 C 747.247 839.38 720.457 785.937 715.576 771.708 C 717.335 773.819 718.244 775.395 720.794 776.277 C 738.491 770.361 766.315 756.439 782.85 747.182 C 774.626 726.511 754.856 666.388 756.72 645.61 z" fill="rgba(188, 187, 187, 1)" transform="translate(0,0)"></path>
<path d="M 720.198 380.81 C 733.087 382.448 775.148 405.951 786.155 414.552 C 764.092 461.266 752.526 503.79 751.495 555.655 C 751.211 569.945 752.1 583.997 751.801 598.123 C 749.319 600.093 744.202 599.856 740.749 600.037 C 720.01 601.349 697.278 603.615 676.735 604.163 C 674.709 539.738 681.315 479.048 702.922 418.195 C 706.782 407.323 712.889 389.303 720.198 380.81 z" fill="rgba(254, 254, 254, 1)" transform="translate(0,0)"></path>
<path d="M 186.766 672.365 C 210.365 670.475 237.591 667.742 260.92 667.064 C 261.371 678.38 261.086 690.125 260.975 701.478 C 264.317 722.465 242.572 842.199 222.461 845.791 C 210.141 841.715 172.45 816.912 164.769 806.542 C 162.686 800.08 177.653 763.229 178.672 753.775 C 178.924 751.435 182.685 736.631 183.406 734.671 C 186.069 710.949 186.763 696.274 186.766 672.365 z" fill="rgba(254, 254, 254, 1)" transform="translate(0,0)"></path>
<path d="M 183.406 734.671 C 183.942 740.506 179.752 755.263 182.246 757.882 C 189.815 765.826 235.024 786.64 243.891 788.076 C 257.308 780.696 256.138 714.738 260.975 701.478 C 264.317 722.465 242.572 842.199 222.461 845.791 C 210.141 841.715 172.45 816.912 164.769 806.542 C 162.686 800.08 177.653 763.229 178.672 753.775 C 178.924 751.435 182.685 736.631 183.406 734.671 z" fill="rgba(188, 187, 187, 1)" transform="translate(0,0)"></path>
<path d="M 192.084 467.83 C 196.852 469.566 208.964 490.371 211.845 495.362 C 239.004 542.408 251.313 586.864 259.768 640.115 C 243.472 642.189 225.688 643.573 209.235 645.036 C 200.822 645.936 193.27 646.474 184.815 646.93 C 176.194 584.074 167.502 569.224 140.213 517.031 C 150.451 503.847 178.121 476.973 192.084 467.83 z" fill="rgba(254, 254, 254, 1)" transform="translate(0,0)"></path>
<path d="M 122.303 539.647 C 134.71 546.313 163.208 634.735 157.066 647.59 C 151.858 651.455 105.172 653.506 94.864 654.201 C 89.6063 655.133 67.3151 658.172 63.5162 655.561 C 62.6662 653.933 61.8917 651.79 62.1882 649.98 C 67.4479 617.855 99.8889 560.238 122.303 539.647 z" fill="rgba(189, 119, 73, 1)" transform="translate(0,0)"></path>
<path d="M 76.083 682.928 L 130.844 677.761 C 138.933 677.007 154.147 675.205 161.64 675.546 C 162.516 693.592 160.148 726.968 155.295 744.391 C 152.243 753.21 147.173 779.711 140.462 784.667 C 134.465 785.355 124.206 773.158 119.794 768.934 C 96.5551 746.687 75.7589 720.749 64.2075 690.455 C 63.2479 687.939 63.6882 686.003 64.9881 683.883 C 68.0635 682.337 72.5175 682.837 76.083 682.928 z" fill="rgba(189, 119, 73, 1)" transform="translate(0,0)"></path>
<path d="M 155.295 744.391 C 152.243 753.21 147.173 779.711 140.462 784.667 C 134.465 785.355 124.206 773.158 119.794 768.934 C 96.5551 746.687 75.7589 720.749 64.2075 690.455 C 63.2479 687.939 63.6882 686.003 64.9881 683.883 C 68.0635 682.337 72.5175 682.837 76.083 682.928 C 77.2715 695.801 141.479 739.748 155.295 744.391 z" fill="rgba(154, 89, 58, 1)" transform="translate(0,0)"></path>
<path d="M 1034.31 613.868 C 1000.4 618.406 951.418 646.166 925.642 668.444 C 916.102 676.272 907.643 685.113 899.116 693.988 C 894.769 698.511 890.54 706.515 884.477 707.854 C 884.153 707.456 883.83 707.058 883.506 706.659 C 884.957 694.681 886.9 676.805 887.154 665.248 C 888.034 625.098 886.08 591.795 879.469 551.984 C 877.943 542.728 876.11 533.525 873.971 524.392 C 872.723 519.271 866.977 502.5 869.964 499.051 C 871.975 499.435 906.031 523.262 911.776 526.382 C 942.204 542.994 976.606 550.939 1011.24 549.354 C 1016.23 549.1 1022.28 549.295 1026.99 547.896 C 1029.99 545.168 1029.12 546.179 1029.71 541.373 C 1031.11 547.678 1036.7 621.278 1036.14 626.488 C 1035.31 622.918 1034.79 617.627 1034.31 613.868 z" fill="url(#Gradient1)" transform="translate(0,0)"></path>
<path d="M 1777.8 697.363 C 1879.48 690.297 1857.87 791.013 1869.2 860.467 C 1870.67 869.458 1876.34 931.314 1870 935.91 C 1855.74 946.228 1809.05 946.547 1790.4 946.135 C 1787.31 944.03 1780.36 938.453 1779.76 934.563 C 1773.94 896.313 1773.28 858.066 1769.13 819.424 C 1767.76 806.676 1765.89 776.403 1746.12 777.048 C 1739.22 777.274 1731.91 785.848 1727.73 791.116 C 1726.28 803.724 1727.67 822.466 1728.73 835.251 L 1734.06 898.947 C 1735.14 912.409 1737.02 930.992 1735.93 944.15 C 1732.71 947.8 1729.68 951.075 1724.24 952.279 C 1704.56 956.629 1678.66 957.92 1658.45 957.751 C 1656.34 957.733 1650.28 954.454 1648.37 953.437 C 1641.33 942.393 1641.68 920.692 1640.69 907.296 L 1636.11 850.206 C 1634.56 831.556 1636.1 807.667 1622.12 793.895 C 1611.03 782.25 1590.37 796.668 1590.3 810.621 C 1590.07 855.437 1597.68 900.693 1599.87 945.468 C 1602.01 963.032 1578.8 967.215 1565.4 966.611 C 1548.53 965.851 1508.31 980.187 1505.32 954.473 C 1503.65 940.041 1502.44 925.83 1501.27 911.965 C 1498.66 881.864 1496.37 851.736 1494.39 821.587 C 1492.7 798.775 1487.5 759.683 1487.65 738.755 C 1489.99 735.201 1493.48 731.083 1496.2 727.7 C 1511.6 722.368 1550.44 720.55 1566.85 723.869 C 1573.15 725.145 1578.11 736.051 1580.46 741.633 C 1586.74 735.789 1592.95 730.238 1600.04 725.374 C 1632.72 702.963 1684.44 697.851 1709.04 734.915 C 1732.2 713.002 1743.72 700.564 1777.8 697.363 z" fill="rgba(254, 254, 254, 1)" transform="translate(0,0)"></path>
<path d="M 1741.55 312.401 C 1750.63 309.68 1757.07 314.224 1762.88 320.408 C 1768.48 343.76 1772.67 463.098 1777.82 471.213 C 1778.67 472.556 1778.78 472.421 1780.32 472.753 C 1788.5 465.632 1815.31 398.303 1827.68 385.179 L 1828 384.845 C 1841.29 381.399 1893.89 376.666 1910.02 378.415 C 1914.62 378.915 1918.11 387.658 1919.73 392.296 C 1916.99 400.887 1909.39 414.499 1904.87 422.674 C 1890.4 448.843 1875.07 474.848 1860.07 500.739 C 1862.48 504.939 1871.01 515.443 1874.4 519.883 C 1886.22 535.324 1898.26 550.585 1910.54 565.66 C 1922.76 580.868 1934.93 593.776 1943.07 611.419 C 1938.93 621.081 1937.01 626.596 1926.04 628.926 C 1909.64 631.063 1867.87 635.366 1852.96 634.873 C 1825.02 613.282 1809.29 577.555 1786.18 553.842 C 1785.03 567.587 1787.73 584.293 1788.71 598.296 C 1789.52 609.796 1789.55 619.057 1789.15 630.625 C 1787.78 632.527 1784.87 636.44 1783.17 637.708 C 1770.86 646.904 1720.23 648.607 1706.49 647.244 C 1701.33 643.936 1700.13 642.885 1695.83 638.618 C 1692.1 624.557 1691.45 602.252 1690.09 586.9 L 1681.14 483.543 L 1671.82 380.233 C 1670.5 365.191 1668.71 348.813 1668.29 333.784 C 1668.11 327.505 1673.13 323.034 1677.53 319.17 C 1690.9 315.782 1725.94 313.877 1741.55 312.401 z" fill="rgba(254, 254, 254, 1)" transform="translate(0,0)"></path>
<path d="M 1349.42 52.0031 C 1422.25 46.6715 1485.62 101.392 1490.95 174.226 C 1496.29 247.06 1441.57 310.428 1368.74 315.765 C 1295.9 321.101 1232.53 266.38 1227.19 193.543 C 1221.86 120.705 1276.58 57.335 1349.42 52.0031 z M 1362.54 238.572 C 1387.67 235.803 1392.58 219.015 1392.52 196.244 C 1392.44 168.648 1390.91 127.572 1353.5 129.384 C 1345.6 130.508 1337.03 133.238 1332.5 140.521 C 1318.46 163.093 1323.03 216.009 1343.69 233.439 C 1348.88 237.812 1356.25 238.772 1362.54 238.572 z" fill="rgba(254, 254, 254, 1)" transform="translate(0,0)"></path>
<path d="M 1721.75 28.4464 C 1729.61 26.153 1740.14 33.0141 1741.54 41.2418 C 1743.45 52.4622 1744.12 63.7807 1745.05 75.1162 C 1746.3 89.8544 1747.69 104.581 1749.2 119.294 L 1756.95 199.52 C 1758.46 216.02 1764.19 258.595 1755.96 271.161 C 1750.21 279.955 1695.63 280.251 1684.79 279.8 C 1677.07 274.316 1674.44 269.499 1668.97 261.74 C 1648.85 281.475 1637.31 289.082 1609.01 292.331 C 1516.27 302.976 1520.74 226.883 1514.13 158.964 L 1508.45 97.7573 C 1507.25 84.4184 1505.51 71.7374 1506.02 58.3345 C 1507.54 55.9818 1509.43 53.6379 1511.48 51.7311 C 1514.82 48.6277 1519.45 46.9469 1523.84 46.0008 C 1532.62 44.1073 1575.51 40.9689 1584.36 41.4619 C 1588.45 41.6899 1593.46 42.429 1596.03 45.9889 C 1606.34 60.3056 1606.15 164.662 1613.38 190.947 C 1614.99 196.879 1617.94 202.359 1622.02 206.961 C 1636.71 223.25 1656.88 208.13 1658.61 189.97 C 1659.79 177.521 1658.49 165.17 1657.43 152.771 L 1651.18 85.8348 C 1650.09 74.3259 1648.67 62.3062 1648.32 50.7862 C 1648.09 43.1339 1651.56 40.6751 1656.87 35.5972 C 1668.05 32.0989 1707.57 29.6096 1721.75 28.4464 z" fill="rgba(254, 254, 254, 1)" transform="translate(0,0)"></path>
<path d="M 1106.65 75.4085 C 1119.73 73.5149 1157.24 75.0044 1170.65 77.2724 C 1181.46 79.1016 1186 82.557 1191.71 91.1274 C 1192.66 107.49 1194.96 124.109 1191.5 139.88 C 1187.07 144.558 1186.05 145.426 1180.65 148.929 C 1162.75 149.691 1143.82 144.04 1125.66 142.316 C 1114.67 141.272 1086.54 141.919 1085.45 156.649 C 1088.25 171.675 1141.87 173.265 1155.56 177.371 C 1178.56 183.148 1201.5 192.12 1209.64 217.108 C 1218.04 242.931 1216.27 277.937 1198.03 299.745 C 1174.09 328.353 1137.18 331.66 1102.25 334.824 C 1080.57 335.52 1035.25 340.044 1017.01 324.725 C 1009.55 318.46 1010.64 280.337 1011.03 268.598 C 1015.01 263.817 1016.34 262.756 1021.15 259.108 C 1050.81 257.825 1079.6 269.821 1109.94 265.988 C 1116.15 265.203 1127.32 260.504 1125.43 252.402 C 1122.63 240.357 1099.5 240.052 1089.38 238.777 C 1047.86 233.547 1005.09 222.756 1000.4 173.849 C 990.154 96.6082 1043.42 82.3532 1106.65 75.4085 z" fill="rgba(254, 254, 254, 1)" transform="translate(0,0)"></path>
<path d="M 1570.83 406.411 C 1589.51 405.198 1614.58 407.107 1632.18 414.215 C 1647.96 420.851 1647.37 436.597 1647.33 450.892 C 1647.26 471.435 1650.86 482.38 1628.42 489.485 C 1600.43 482.655 1545.63 471.858 1541.28 515.006 C 1536.46 562.899 1556.74 601.124 1610.87 580.989 C 1639.7 570.262 1658.34 553.786 1661.22 600.969 C 1662.41 620.492 1666.85 634.184 1649.56 646.147 C 1625.81 658.625 1609.88 659.293 1584.75 662.792 C 1511.16 672.536 1453.42 630.956 1446.49 555.383 C 1441.6 502.07 1451.53 453.508 1501.96 424.108 C 1524.12 411.193 1545.64 408.75 1570.83 406.411 z" fill="rgba(254, 254, 254, 1)" transform="translate(0,0)"></path>
<path d="M 1376.86 445.593 C 1397.78 443.366 1407.91 441.253 1409.99 465.907 C 1412.38 494.185 1414.17 522.59 1416.71 550.839 C 1419.21 576.878 1421.32 602.954 1423.05 629.056 C 1424.9 656.917 1431.75 674.697 1396.22 675.67 C 1384.78 675.984 1370.84 677.579 1359.25 678.588 C 1349.76 679.112 1333.31 678.203 1331.48 666.699 C 1328.03 644.918 1326.54 621.022 1324.56 599.015 L 1317.9 518.377 C 1317.04 507.684 1311.93 463.311 1316.46 455.848 C 1326.56 447.291 1362.03 446.901 1376.86 445.593 z" fill="rgba(254, 254, 254, 1)" transform="translate(0,0)"></path>
<path d="M 1370.62 343.576 C 1371.62 343.439 1372.62 343.32 1373.63 343.219 C 1381.65 342.424 1386.11 342.703 1392.78 347.723 C 1404.93 356.876 1406.89 400.436 1396.67 409.697 C 1388.16 417.408 1349.99 417.637 1337.26 418.272 C 1329.27 418.446 1316.36 419.296 1312.43 410.941 C 1305.64 396.485 1304.66 371.735 1308.41 356.611 C 1321.39 342.229 1350.7 345.152 1370.62 343.576 z" fill="rgba(254, 254, 254, 1)" transform="translate(0,0)"></path>
<path d="M 1195.22 718.18 C 1217.92 715.947 1234.96 720.931 1226.62 747.526 C 1219.07 771.605 1210.3 814.154 1193.92 832.899 C 1174.73 833.816 1153.13 835.584 1160.9 808.995 C 1168.79 781.972 1165.16 728.199 1195.22 718.18 z" fill="rgba(254, 254, 254, 1)" transform="translate(0,0)"></path>
<path d="M 1873.49 35.6929 C 1905.67 -0.405933 1965.03 -13.4037 2003.8 20.2659 C 2037.67 49.6862 2044.92 101.064 2048 143.456 L 2048 160.551 C 2044.39 191.23 2039.22 217.825 2016.16 240.257 C 1993.04 262.739 1953.99 268.613 1923.97 258.962 C 1916.57 256.584 1904.41 249.246 1898.43 249.081 C 1895.48 251.792 1902.49 321.113 1901.98 330.786 C 1897.52 337.65 1892.76 341.527 1884.4 343.061 C 1862.7 347.045 1839.73 347.899 1817.72 347.158 C 1811.07 341.454 1808.31 339.048 1807.27 330.325 C 1804.16 304.111 1802.42 277.699 1800.23 251.383 L 1790.14 133.575 L 1785.29 75.732 C 1784.08 61.6336 1781.84 43.8103 1783.26 29.9718 C 1791.23 16.837 1842.62 16.3467 1857.85 17.5497 C 1864.69 18.0897 1870.57 30.5417 1873.49 35.6929 z M 1929.32 190.388 C 1947.69 180.439 1949.52 162.853 1948.92 143.908 C 1948.08 117.334 1944 74.142 1906.27 81.7015 C 1899.1 85.1013 1892.28 91.649 1890.58 99.5364 C 1884.99 125.432 1884.22 204.127 1929.32 190.388 z" fill="rgba(254, 254, 254, 1)" transform="translate(0,0)"></path>
<path d="M 1345.18 992 C 1311.94 987.587 1278.44 977.735 1257.92 949.273 C 1235.64 918.382 1231.38 867.57 1235.94 830.852 C 1245.75 752.573 1318.94 724.915 1389.33 733.519 C 1411.49 736.227 1435.6 747.972 1447.9 766.303 C 1465.92 793.759 1475.72 844.258 1443.81 865.9 C 1418.5 883.065 1388.21 886.107 1358.63 889.66 C 1351.18 890.555 1333.98 888.992 1331.32 896.172 C 1331.86 901.284 1336.53 904.804 1340.15 907.878 C 1370 933.259 1411.73 909.388 1442.68 898.521 C 1444.81 897.772 1448.11 897.195 1450.39 896.868 C 1462.16 904.35 1463.78 913.921 1465.51 926.799 C 1466.8 936.43 1469.39 951.74 1464.07 960.037 C 1454.6 974.83 1421.95 982.098 1406.74 985.292 C 1394.1 987.886 1381.4 990.123 1368.63 992 L 1345.18 992 z M 1327.25 843.953 L 1355.81 841.579 C 1364.44 840.478 1373.24 840.02 1379.11 832.631 C 1381.76 829.284 1382.9 824.984 1382.26 820.76 C 1380.31 807.165 1366.59 802.966 1354.67 803.382 C 1330.6 806.988 1326.75 821.873 1327.25 843.953 z" fill="rgba(254, 254, 254, 1)" transform="translate(0,0)"></path>
</g></svg></svg></svg>